# xmcd CD database file
#
# Track frame offsets:
#	182
#	12472
#	27850
#	41532
#	52630
#	65735
#	78592
#	91952
#	106967
#	119515
#	132897
#	143932
#	157125
#	168722
#
# Disc length: 2419 seconds
#
# Revision: 0
# Processed by: cddbd v1.4PL0 Copyright (c) Steve Scherf et al.
# Submitted via: CDex 1.50beta9
#
DISCID=bf09710e
DTITLE=Reba Mcentire - The Country Store Collection
DYEAR=1981
DGENRE=Country
TTITLE0=I Can See Forever In Your Eyes
TTITLE1=Old Man River (I've Come To Talk Again)
TTITLE2=Sweet Dreams
TTITLE3=Can't Even Get The Blues
TTITLE4=You're The First Time I've Thought About Leaving
TTITLE5=Only You (And You Alone)
TTITLE6=Reba Mcentire And Jacky Ward/That Makes Two Of Us
TTITLE7=Today All Over Again
TTITLE8=(you Lift Me) Up To Heaven
TTITLE9=A Poor Man's Roses (Or A Rich Man's Gold)
TTITLE10=Who?
TTITLE11=Gonna Love Ya (Till The Cows Come Home)
TTITLE12=Tears On My Pillow
TTITLE13=I'm Not That Lonely Yet
EXTD=YEAR: 1981
EXTT0=
EXTT1=
EXTT2=
EXTT3=
EXTT4=
EXTT5=
EXTT6=
EXTT7=
EXTT8=
EXTT9=
EXTT10=
EXTT11=
EXTT12=
EXTT13=
PLAYORDER=
